# xmcd
#
# Track frame offsets:
# 150
# 11738
# 22300
# 32125
# 43363
# 55163
# 68488
# 81363
# 91963
# 102925
# 128950
# 140363
# 154588
# 166613
# 174563
# 187413
# 200688
# 212750
# 221388
# 232338
#
# Disc length: 3262 seconds
#
#
# Revision: 0
# Processed by: cddbd v1.5.1PL0 Copyright (c) Steve Scherf et al.
# Submitted via: FreeRIP 2.90 
#
DISCID=270cbc14
DTITLE=Country Various - Country Praise
DYEAR=1993
DGENRE=Country
TTITLE0=George Jones - Old Bush Arbors
TTITLE1=Patsy Cline - He Will Do It For You
TTITLE2=George Jones - If You Want To Wear A Crown
TTITLE3=Jime Reeves - When God Dips His Love In My Heart
TTITLE4=George Jones - Wanderin' Soul
TTITLE5=Roy Acuff - The Great Speckled Bird
TTITLE6=George Jones - Taggin' Along
TTITLE7=Carl Perkins - Daddy Sang Bass
TTITLE8=George Jones - Won't It be Wonderful There
TTITLE9=Jerry Lee lewis - Picture's From Life's Other Side
TTITLE10=George Jones -  Where We never Grow Old
TTITLE11=Sons of the Pioneers - There's A Round-Up In The Sky
TTITLE12=George Jones - Sweeter Than The Flowers
TTITLE13=Tennessee Ernie Ford - Sundat Down In Tennessee
TTITLE14=George Jones - Sweeter Than Flowers
TTITLE15=Patsy Cline - Life's Railway to Heaven
TTITLE16=George Jones - Bringing It Home
TTITLE17=Jack Scott - Save My Soul
TTITLE18=George Jones - Cup of Loneliness
TTITLE19=Roy Acuff - Wreck On The Highway
EXTD=
EXTT0=
EXTT1=
EXTT2=
EXTT3=
EXTT4=
EXTT5=
EXTT6=
EXTT7=
EXTT8=
EXTT9=
EXTT10=
EXTT11=
EXTT12=
EXTT13=
EXTT14=
EXTT15=
EXTT16=
EXTT17=
EXTT18=
EXTT19=
PLAYORDER=
